# xmcd
#
# Track frame offsets: 
#        150
#        22249
#        36483
#        54768
#        76603
#        86018
#        106362
#        127863
#        147636
#        169269
#        194699
#
# Disc length: 2871 seconds
#
# Revision: 0
# Processed by: cddbd v1.5.2PL0 Copyright (c) Steve Scherf et al.
# Submitted via: ExactAudioCopy v1.0b1
#
DISCID=950b350b
DTITLE=Revend Everett Jenkins - Live In Italy And More
DYEAR=2009
DGENRE=Gospel
TTITLE0=I'm Free At Last
TTITLE1=Let It Be
TTITLE2=You Raise Me Up
TTITLE3=Oh Happy Day
TTITLE4=Amen
TTITLE5=All My Help
TTITLE6=Jesus, Oh What A Wonderful Child
TTITLE7=Wind Beneath My Wings
TTITLE8=Stand
TTITLE9=Total Praise
TTITLE10=Didn't It Rain
EXTD=
EXTT0=
EXTT1=
EXTT2=
EXTT3=
EXTT4=
EXTT5=
EXTT6=
EXTT7=
EXTT8=
EXTT9=
EXTT10=
PLAYORDER=
